<svg t="1722844439661" class="icon" viewBox="0 0 1024 1024" version="1.1" xmlns="http://www.w3.org/2000/svg" p-id="6493" width="200" height="200"><path d="M0 512V0h1024v1024H0V512z m529.493333 504.405333c8.618667-3.328 12.629333-5.461333 17.493334-9.301333 4.096-3.242667 182.954667-181.162667 196.778666-195.754667 2.816-2.986667 6.058667-7.338667 7.168-9.728 1.109333-2.304 2.474667-4.778667 2.986667-5.461333 0.597333-0.682667 1.28-2.901333 1.621333-4.778667 0.256-1.962667 1.109333-4.608 1.792-5.973333 1.706667-3.328 1.706667-14.933333 0-18.176-0.682667-1.365333-1.450667-4.096-1.792-6.144s-1.024-4.352-1.621333-5.034667-1.365333-2.218667-1.706667-3.413333-1.450667-3.157333-2.474666-4.437333c-0.938667-1.28-2.730667-3.584-3.84-5.12-2.304-3.157333-12.202667-11.776-13.482667-11.776-0.512 0-1.536-0.768-2.389333-1.706667s-2.304-1.706667-3.157334-1.706667c-0.938667 0-2.645333-0.768-3.84-1.706666s-3.328-1.706667-4.693333-1.706667-4.949333-0.682667-7.936-1.450667c-5.12-1.365333-5.802667-1.365333-11.690667 0-3.413333 0.853333-6.997333 1.450667-7.936 1.450667s-2.474667 0.512-3.413333 1.194667c-0.938667 0.597333-2.645333 1.450667-3.84 1.792-6.912 2.048-15.36 9.984-86.869333 81.408-75.776 75.776-76.885333 76.8-83.797334 76.8-7.509333 0-2.218667 5.12-190.634666-183.125334-120.661333-120.490667-179.968-180.224-181.248-182.698666-2.474667-4.693333-2.56-11.690667-0.170667-16.128 0.938667-1.877333 77.141333-78.677333 182.784-184.32l181.162667-181.162667h7.765333c6.656 0 8.192 0.256 10.24 1.877333 1.365333 0.938667 35.754667 34.816 76.373333 75.264s75.008 74.24 76.373334 75.178667c2.304 1.706667 5.802667 3.413333 13.568 6.912 4.949333 2.218667 22.442667 2.730667 27.733333 0.768 2.133333-0.768 5.205333-1.792 6.826667-2.304 1.621333-0.426667 3.584-1.365333 4.266666-1.962667s2.218667-1.365333 3.328-1.706666 5.376-3.925333 9.386667-8.021334c9.045333-9.045333 13.568-17.493333 15.957333-29.696 1.365333-6.912 1.450667-8.533333 0.426667-12.8-0.597333-2.730667-1.365333-6.314667-1.706667-7.936-0.597333-2.730667-2.56-7.168-6.656-14.933333-1.962667-3.669333-185.514667-188.501333-197.376-198.826667-5.717333-4.864-14.848-10.496-17.408-10.581333-0.853333-0.085333-2.901333-0.853333-4.437333-1.877333-2.56-1.536-4.181333-1.706667-16.384-1.706667-12.117333 0-13.994667 0.170667-16.896 1.706667-1.792 1.024-4.181333 1.792-5.205333 1.792s-2.133333 0.426667-2.474667 0.938666c-0.256 0.512-1.536 1.365333-2.816 1.962667-1.194667 0.597333-3.584 1.792-5.205333 2.645333-2.986667 1.706667-56.661333 55.125333-321.706667 319.744C34.56 458.666667 12.8 480.853333 12.8 483.754667c0 0.426667-0.682667 1.621333-1.621333 2.730666-0.853333 1.109333-1.877333 3.413333-2.218667 5.034667s-1.194667 3.925333-1.962667 5.12c-2.133333 3.157333-2.133333 27.562667 0 30.72 0.768 1.194667 1.621333 3.498667 1.962667 5.12s1.365333 3.925333 2.218667 5.034667c0.938667 1.109333 1.621333 2.304 1.621333 2.730666 0 0.341333 1.28 2.56 2.730667 4.778667 1.536 2.218667 105.813333 107.093333 231.765333 232.96 210.688 210.602667 229.461333 229.12 235.605333 232.704 3.669333 2.133333 7.765333 4.096 9.130667 4.437333 1.365333 0.256 3.242667 1.024 4.266667 1.621334 2.645333 1.706667 5.632 1.962667 17.408 1.792 8.96-0.085333 11.52-0.426667 15.786666-2.133334z m308.394667-308.48c1.365333-0.768 3.242667-1.365333 4.096-1.365333 1.792 0 6.4-2.304 13.056-6.570667 5.461333-3.498667 144.981333-142.762667 151.125333-150.869333 4.522667-5.973333 7.509333-11.434667 10.24-19.2 1.792-4.778667 2.048-6.997333 1.962667-16.64-0.085333-9.386667-0.341333-11.776-1.962667-15.786667-2.730667-6.656-5.205333-11.690667-8.106666-16.213333-2.645333-4.096-145.066667-146.261333-152.490667-152.149333-15.786667-12.544-36.864-14.506667-54.528-5.12-6.4 3.413333-10.069333 6.229333-14.250667 10.837333-4.096 4.437333-9.642667 11.946667-9.642666 12.970667 0 0.256-0.682667 2.048-1.621334 4.010666-0.853333 1.962667-2.218667 6.912-3.072 11.093334-1.450667 7.082667-1.450667 7.765333-0.085333 14.933333 1.536 7.765333 4.693333 15.872 7.68 20.224 3.157333 4.437333 6.314667 7.68 53.845333 55.381333 25.856 25.856 48.042667 48.384 49.322667 50.090667 2.133333 2.816 2.304 3.754667 2.304 10.410667 0 6.229333-0.256 7.765333-1.962667 10.154666-1.024 1.536-24.234667 25.088-51.456 52.309334-51.370667 51.2-51.456 51.456-56.490666 63.573333-2.048 5.034667-2.304 6.570667-2.304 16.213333 0 9.557333 0.256 11.349333 2.389333 17.066667 3.242667 8.618667 9.386667 17.322667 16.384 23.296 6.144 5.205333 14.592 9.984 17.578667 9.984 0.938667 0 2.56 0.426667 3.584 1.024 3.498667 1.877333 6.997333 2.304 14.421333 1.962667 4.437333-0.170667 8.362667-0.853333 9.984-1.621334z m-302.421333-76.885333c1.877333-0.682667 4.949333-1.450667 6.826666-1.706667 3.242667-0.512 8.192-2.218667 16.64-5.546666 2.133333-0.853333 4.437333-1.792 5.12-2.048 1.28-0.512 6.144-3.328 13.397334-7.68 6.314667-3.84 19.882667-15.189333 24.149333-20.309334 6.058667-7.082667 12.458667-15.36 13.738667-17.834666 6.826667-13.056 11.349333-23.125333 12.885333-29.354667 0.512-1.877333 1.621333-5.888 2.474667-8.96 3.072-11.093333 2.901333-36.352-0.341334-47.872-2.730667-9.557333-3.072-10.666667-4.437333-14.421333-1.536-4.352-4.437333-10.837333-5.632-12.8-0.426667-0.682667-1.365333-2.389333-2.048-3.84-3.242667-6.485333-10.154667-16.042667-15.786667-22.101334-12.458667-13.226667-20.48-19.456-34.730666-27.050666-6.144-3.328-8.618667-4.352-19.456-8.021334-14.762667-4.949333-36.864-6.656-51.626667-3.925333-17.834667 3.242667-32.341333 9.301333-49.834667 20.736-6.912 4.608-16.725333 13.824-23.381333 22.016-2.474667 3.072-4.949333 6.144-5.632 6.826667-0.597333 0.682667-2.389333 3.413333-3.84 5.973333-1.536 2.56-3.072 5.290667-3.498667 5.973333-0.768 1.28-3.328 6.912-6.570666 14.506667-2.304 5.205333-4.949333 14.933333-6.656 24.661333-1.621333 8.704-1.962667 25.6-0.512 29.269334 0.426667 1.194667 1.109333 4.693333 1.450666 7.68 0.341333 2.901333 1.28 7.253333 2.133334 9.472 0.938667 2.218667 1.621333 4.693333 1.621333 5.376 0 2.901333 8.533333 20.394667 13.653333 27.989333 0.682667 1.024 2.133333 3.242667 3.157334 4.778667 6.570667 10.069333 20.906667 23.381333 35.157333 32.597333 7.765333 5.12 24.405333 12.032 32.938667 13.824 2.816 0.512 5.717333 1.365333 6.314666 1.792 3.669333 2.218667 35.669333 2.218667 42.325334 0z" fill="#FFFFFF" p-id="6494"></path><path d="M498.005333 1020.842667c-1.365333-0.256-3.328-0.853333-4.266666-1.536-1.024-0.597333-2.901333-1.365333-4.266667-1.621334-1.365333-0.341333-5.461333-2.304-9.130667-4.437333-6.144-3.584-24.917333-22.101333-235.605333-232.704C118.784 654.677333 14.506667 549.802667 12.970667 547.584c-1.450667-2.218667-2.730667-4.437333-2.730667-4.778667 0-0.426667-0.682667-1.621333-1.621333-2.730666-0.853333-1.109333-1.877333-3.413333-2.218667-5.034667s-1.194667-3.925333-1.962667-5.12c-2.133333-3.157333-2.133333-32.682667 0-35.84 0.768-1.194667 1.621333-3.498667 1.962667-5.12s1.365333-3.925333 2.218667-5.034667c0.938667-1.109333 1.621333-2.304 1.621333-2.730666 0-2.901333 21.76-25.088 145.92-149.077334C421.205333 67.498667 474.88 14.08 477.866667 12.373333c1.621333-0.853333 4.010667-2.048 5.205333-2.645333 1.28-0.597333 2.56-1.450667 2.816-1.962667 0.341333-0.512 1.450667-0.938667 2.474667-0.938666s3.413333-0.853333 5.290666-1.792c3.157333-1.706667 4.693333-1.877333 19.370667-1.792 14.762667 0 16.213333 0.085333 18.858667 1.792 1.621333 0.938667 3.669333 1.792 4.522666 1.877333 2.56 0.085333 11.690667 5.717333 17.408 10.581333 11.861333 10.325333 195.413333 195.157333 197.376 198.826667 3.84 7.338667 6.570667 13.312 6.570667 14.677333 0 0.853333 0.597333 3.413333 1.28 5.717334 2.816 9.216 0.512 24.661333-5.290667 36.181333-3.669333 7.424-15.104 19.797333-20.224 21.930667-1.621333 0.682667-3.157333 1.621333-3.413333 2.048-0.341333 0.426667-1.792 1.109333-3.328 1.365333-1.450667 0.341333-3.84 1.194667-5.205333 1.877333-5.802667 2.986667-27.904 2.901333-35.072-0.170666-6.570667-2.816-11.093333-5.034667-13.568-6.826667-1.365333-0.938667-35.754667-34.730667-76.373334-75.178667s-75.008-74.325333-76.373333-75.264c-1.877333-1.450667-3.669333-1.877333-7.68-1.877333h-5.205333L326.144 321.962667C220.501333 427.605333 144.298667 504.405333 143.36 506.282667c-2.218667 4.181333-2.133333 6.485333 0.170667 11.008 1.28 2.474667 60.586667 62.208 181.248 182.698666 148.992 148.821333 179.968 179.456 183.722666 181.162667l4.437334 2.133333 4.010666-1.962666c3.072-1.450667 21.76-19.712 77.056-75.008 50.858667-50.688 74.922667-74.24 79.018667-76.970667 3.242667-2.218667 6.229333-4.010667 6.656-4.010667 0.341333 0 2.218667-0.682667 4.181333-1.621333 8.021333-3.669333 22.528-5.205333 29.525334-3.157333 2.474667 0.768 5.802667 1.365333 7.253333 1.365333 1.536 0 3.754667 0.768 4.949333 1.706667s2.901333 1.706667 3.84 1.706666c0.853333 0 2.304 0.768 3.157334 1.706667s1.877333 1.706667 2.389333 1.706667c1.28 0 11.178667 8.618667 13.482667 11.776 1.109333 1.536 2.901333 3.84 3.84 5.12 1.024 1.28 2.133333 3.242667 2.474666 4.437333s1.109333 2.730667 1.706667 3.413333 1.28 2.986667 1.621333 5.034667 1.109333 4.778667 1.792 6.144c1.792 3.413333 1.792 19.882667 0 23.296-0.682667 1.365333-1.536 4.010667-1.792 5.973333-0.341333 1.877333-1.024 4.096-1.621333 4.778667-0.512 0.682667-1.877333 3.157333-2.986667 5.461333-1.109333 2.389333-4.352 6.741333-7.168 9.728-13.824 14.592-192.682667 192.512-196.778666 195.754667-4.864 3.84-8.874667 5.973333-17.493334 9.301333-4.522667 1.792-6.656 2.048-18.346666 2.133334-7.253333 0.085333-14.336 0-15.701334-0.256z m29.269334-4.608c16.469333-5.205333 13.909333-2.901333 121.770666-111.018667l98.048-98.389333 3.669334-7.509334c2.474667-5.034667 4.181333-10.069333 5.205333-15.445333 1.536-7.765333 1.536-8.277333 0-15.530667-1.877333-9.216-4.181333-14.592-8.96-21.418666-11.52-16.213333-29.525333-24.576-48.298667-22.442667-8.704 1.024-16.128 4.010667-24.490666 9.813333-0.682667 0.512-15.957333 15.445333-33.962667 33.28s-51.2 50.773333-73.898667 73.216c-22.613333 22.442667-42.581333 41.813333-44.288 42.922667-4.437333 2.816-13.909333 2.901333-18.517333 0.170667-4.864-2.986667-360.789333-358.912-363.178667-363.264-2.901333-5.034667-2.986667-13.056-0.256-17.749334 1.109333-1.792 31.061333-32.426667 66.645334-68.096 35.669333-35.669333 89.6-89.941333 119.893333-120.576 30.378667-30.72 67.242667-67.925333 81.92-82.688 14.592-14.762667 26.624-27.221333 26.624-27.648s0.597333-0.768 1.28-0.768 1.28-0.341333 1.28-0.682666c0-0.426667 3.242667-4.096 7.253333-8.192 4.010667-4.010667 7.253333-7.765333 7.253334-8.192 0-0.512-0.938667-0.853333-2.133334-0.853334s-2.816-0.768-3.584-1.706666c-1.28-1.450667-2.56-1.706667-8.533333-1.706667-6.314667 0-7.253333-0.170667-9.386667-2.218667-2.218667-2.048-2.645333-2.133333-8.362666-1.621333-5.717333 0.597333-6.229333 0.426667-8.704-1.621333-2.389333-2.048-3.328-2.218667-9.984-2.218667-6.4 0-7.424-0.170667-8.192-1.706667s-1.792-1.706667-8.533334-1.706666-7.765333-0.170667-8.704-1.706667c-1.024-1.536-2.048-1.706667-10.666666-1.706667-8.704 0-9.642667-0.170667-10.496-1.706666-0.768-1.536-1.792-1.706667-8.533334-1.706667-4.181333 0-7.850667-0.426667-8.106666-0.853333-0.938667-1.536-4.010667-0.938667-4.437334 0.853333-0.256 0.938667-0.938667 1.706667-1.621333 1.706667-0.597333 0-1.536 0.768-2.048 1.706666s-1.28 1.706667-1.621333 1.706667c-0.426667 0-8.789333 7.850667-18.602667 17.493333-68.522667 67.584-117.162667 115.797333-198.741333 197.034667C26.794667 467.626667 17.578667 477.013333 14.165333 482.986667c-2.133333 3.669333-4.096 7.68-4.437333 9.045333-0.256 1.365333-1.194667 3.413333-1.877333 4.608-1.024 1.621333-1.450667 5.034667-1.706667 13.738667-0.341333 10.410667-0.170667 12.032 1.450667 15.701333 1.024 2.218667 1.792 4.608 1.792 5.205333 0 1.365333 3.498667 8.106667 7.168 13.824 2.048 3.242667 453.546667 454.997333 460.032 460.373334 3.498667 2.816 14.762667 9.130667 16.469333 9.216 0.853333 0 3.157333 0.768 5.290667 1.621333 5.717333 2.389333 21.333333 2.389333 28.928-0.085333z m150.357333-739.84c2.048-1.877333 3.328-3.84 3.328-5.12s1.365333-3.328 3.84-5.717334c2.304-2.218667 3.84-4.437333 3.84-5.546666s0.768-2.56 1.706667-3.413334c0.938667-0.768 1.706667-2.304 1.706666-3.413333 0-1.194667 1.365333-3.328 3.413334-5.290667 1.877333-1.877333 3.413333-4.181333 3.413333-5.12 0-1.024 0.768-2.56 1.706667-3.413333s1.706667-2.389333 1.706666-3.413333c0-0.938667 1.536-3.242667 3.413334-5.12 2.048-1.962667 3.413333-4.096 3.413333-5.290667 0-1.109333 0.768-2.645333 1.706667-3.413333 0.938667-0.853333 1.706667-2.304 1.706666-3.328s1.706667-3.584 3.84-5.717334c2.133333-2.218667 3.84-4.778667 3.84-5.717333s1.109333-2.730667 2.389334-4.010667c2.645333-2.645333 2.730667-4.949333 0.085333-5.632-0.938667-0.256-1.621333-1.194667-1.621333-2.218666s-0.426667-1.792-0.853334-1.792c-0.512 0-1.706667-1.024-2.816-2.304-3.498667-4.181333-25.258667-26.794667-46.08-47.957334-15.36-15.530667-24.234667-23.210667-29.781333-25.770666-1.109333-0.426667-3.498667-1.792-5.376-2.901334-1.877333-1.194667-4.352-2.474667-5.546667-2.986666s-3.242667-1.450667-4.693333-2.133334c-5.717333-2.730667-11.264-4.864-14.506667-5.546666-1.877333-0.341333-5.717333-1.28-8.533333-2.048-7.338667-1.962667-20.906667-1.792-27.733333 0.341333-2.901333 0.938667-6.144 1.706667-7.168 1.706667-0.938667 0.085333-3.328 0.768-5.205334 1.706666s-3.84 1.621333-4.437333 1.706667c-1.28 0-15.530667 7.509333-17.408 9.045333-0.682667 0.682667-1.621333 1.194667-1.962667 1.194667-1.194667 0-15.36 10.496-20.992 15.616l-4.437333 4.010667h3.754667c2.645333 0 4.608 0.597333 6.570666 2.048 1.536 1.194667 18.773333 17.749333 38.229334 36.949333 40.448 39.765333 49.578667 48.64 76.117333 74.325333 10.496 10.24 21.418667 20.821333 24.234667 23.637334 2.901333 2.816 6.570667 6.229333 8.277333 7.509333l2.986667 2.474667 0.256-2.389334c0.170667-1.536 1.621333-3.669333 3.669333-5.546666z" fill="#0E74FF" p-id="6495"></path><path d="M505.6 1020.501333c-4.181333-0.256-9.130667-1.109333-10.837333-1.877333-1.792-0.853333-3.754667-1.450667-4.437334-1.450667-1.536 0-12.885333-6.4-16.298666-9.130666-6.485333-5.376-457.984-457.130667-460.032-460.373334-3.669333-5.717333-7.168-12.458667-7.168-13.824 0-0.597333-0.768-2.986667-1.792-5.205333-1.621333-3.669333-1.792-5.290667-1.450667-18.261333 0.256-11.178667 0.597333-14.592 1.621333-16.298667 0.768-1.194667 1.706667-3.242667 1.962667-4.608 0.341333-1.365333 2.304-5.376 4.437333-9.045333 3.413333-5.973333 12.629333-15.36 97.109334-99.498667 81.578667-81.237333 130.218667-129.450667 198.741333-197.034667 9.813333-9.642667 18.176-17.493333 18.602667-17.493333 0.341333 0 1.109333-0.768 1.621333-1.706667s1.450667-1.706667 2.133333-1.706666 1.28-0.597333 1.28-1.365334 0.768-1.536 1.621334-1.792c0.938667-0.256 1.792-1.109333 2.048-2.048 0.597333-2.389333 2.56-1.962667 4.693333 0.938667 1.877333 2.474667 2.048 2.56 9.557333 2.56 6.741333 0 7.765333 0.170667 8.533334 1.706667 0.853333 1.536 1.792 1.706667 10.496 1.706666 8.618667 0 9.642667 0.170667 10.666666 1.706667 0.938667 1.536 1.962667 1.706667 8.704 1.706667s7.765333 0.170667 8.533334 1.706666 1.792 1.706667 8.277333 1.706667 7.68 0.256 9.386667 1.877333c1.792 1.621333 2.816 1.877333 8.618666 1.621334 6.058667-0.170667 6.826667 0 8.96 1.962666 2.133333 2.048 3.072 2.218667 9.386667 2.218667 5.973333 0 7.253333 0.256 8.533333 1.706667 1.621333 1.877333 7.253333 2.389333 8.874667 0.768 1.365333-1.365333 3.754667-0.341333 3.157333 1.365333-0.256 0.682667-1.024 1.28-1.621333 1.28-0.682667 0-1.450667 0.768-1.706667 1.706667s-1.109333 1.706667-1.792 1.706666-1.194667 0.341333-1.194666 0.853334c0 0.426667-3.242667 4.181333-7.253334 8.192-4.010667 4.096-7.253333 7.765333-7.253333 8.192 0 0.341333-0.597333 0.682667-1.28 0.682666s-1.28 0.341333-1.28 0.768-12.032 12.885333-26.624 27.648c-14.677333 14.762667-51.541333 51.968-81.92 82.688-30.293333 30.634667-84.224 84.906667-119.893333 120.576-35.584 35.669333-65.536 66.304-66.645334 68.096-2.474667 4.181333-2.389333 8.021333 0.256 12.629334 2.389333 4.352 358.314667 360.277333 363.178667 363.264 4.181333 2.56 9.301333 2.474667 13.397333-0.170667 1.706667-1.109333 21.674667-20.48 44.288-42.922667 22.698667-22.442667 55.893333-55.381333 73.898667-73.216s33.28-32.768 33.962667-33.28c12.288-8.618667 25.6-11.776 41.045333-9.813333 14.848 1.792 27.818667 9.728 36.864 22.442667 4.864 6.826667 7.594667 13.568 9.472 23.637333 1.450667 7.936 1.450667 8.277333-0.256 17.237333-1.28 6.570667-2.816 11.264-5.461333 16.64l-3.669334 7.509334-98.048 98.389333c-96.938667 97.194667-102.144 102.058667-112.725333 107.52-8.96 4.522667-19.029333 6.144-33.28 5.205333z m20.821333-5.12c9.386667-2.901333 14.592-5.802667 22.613334-12.288 4.608-3.669333 191.829333-191.146667 195.242666-195.413333 3.242667-4.181333 6.656-9.386667 6.656-10.410667 0-0.512 0.768-2.56 1.621334-4.608 4.693333-10.752 3.754667-26.026667-2.474667-38.570666-2.901333-5.888-4.949333-8.533333-10.666667-13.909334-6.4-6.229333-9.813333-8.448-19.626666-12.714666-2.304-1.109333-6.4-1.706667-13.056-1.962667-8.789333-0.341333-10.154667-0.170667-16.469334 1.962667-13.994667 4.778667-7.168-1.450667-102.058666 92.928-34.389333 34.218667-63.914667 63.061333-65.706667 64.170666-2.645333 1.621333-4.437333 1.962667-10.24 2.048-6.826667 0-6.997333-0.085333-11.093333-3.328-5.973333-4.864-359.082667-357.632-361.813334-361.557333-2.133333-2.986667-2.389333-4.096-2.389333-10.154667 0-5.973333 0.256-7.168 2.133333-9.728 1.194667-1.536 30.378667-31.232 64.853334-65.877333 81.92-82.261333 110.933333-111.701333 110.933333-112.554667 0-0.426667 0.768-1.024 1.706667-1.28s1.706667-0.938667 1.706666-1.450666 2.304-3.072 5.12-5.802667 5.12-5.290667 5.12-5.802667c0-0.426667 0.768-1.024 1.706667-1.28 1.962667-0.512 2.304-3.157333 0.512-3.157333-0.682667 0-2.304-0.938667-3.584-2.133333-2.048-1.962667-2.986667-2.133333-9.642667-2.133334-6.4 0-7.509333-0.256-8.448-1.706666-0.938667-1.536-1.962667-1.706667-8.704-1.706667s-7.765333-0.170667-8.533333-1.706667-1.792-1.706667-8.448-1.706666c-6.4 0-7.765333-0.256-9.045333-1.706667s-2.645333-1.706667-9.045334-1.706667c-6.656 0-7.68-0.170667-8.448-1.706666s-1.792-1.706667-8.533333-1.706667-7.765333-0.170667-8.704-1.706667c-1.024-1.536-2.048-1.706667-10.666667-1.706666-5.461333 0-9.728-0.341333-10.069333-0.853334-1.024-1.621333-3.84-0.938667-3.84 0.853334 0 1.109333-0.597333 1.706667-1.706667 1.706666-0.938667 0-1.706667 0.597333-1.706666 1.28 0 0.768-0.938667 1.706667-2.133334 2.133334s-2.133333 1.365333-2.133333 2.048c0 0.597333-0.768 1.365333-1.706667 1.621333s-1.706667 1.024-1.706666 1.792-0.426667 1.365333-0.853334 1.365333c-0.938667 0-5.888 4.864-61.013333 59.306667-27.306667 26.965333-119.210667 118.528-122.794667 122.453333-0.682667 0.768-1.706667 2.304-2.218666 3.413334-0.512 1.194667-2.048 4.096-3.584 6.4-1.450667 2.389333-2.986667 5.632-3.328 7.253333s-1.28 4.693333-2.048 6.826667c-1.962667 5.205333-1.450667 21.674667 0.682666 24.746666 0.768 1.194667 1.450667 2.901333 1.450667 3.925334 0 1.792 3.925333 10.496 5.205333 11.434666 0.256 0.256 1.194667 1.792 2.048 3.413334 2.218667 4.352 456.192 457.813333 462.592 462.08 11.605333 7.765333 19.797333 10.496 31.829334 10.581333 6.826667 0.085333 10.24-0.341333 14.506666-1.706667zM678.4 290.986667c0-0.426667 0.597333-0.853333 1.28-0.853334s1.28 0.426667 1.28 0.853334c0 0.512-0.597333 0.853333-1.28 0.853333s-1.28-0.341333-1.28-0.853333zM669.013333 285.184c-2.133333-1.706667-6.229333-5.461333-9.130666-8.277333-2.816-2.816-13.738667-13.397333-24.234667-23.637334-26.538667-25.685333-35.669333-34.56-76.117333-74.325333-19.456-19.2-36.693333-35.754667-38.229334-36.949333-2.048-1.450667-3.925333-2.048-6.741333-2.048-3.925333 0-8.362667-2.218667-6.229333-3.072 0.512-0.256 2.816-2.133333 5.12-4.266667 5.802667-5.461333 21.674667-17.408 23.04-17.408 0.341333 0 1.194667-0.512 1.877333-1.194667 1.877333-1.536 16.128-9.045333 17.408-9.045333 0.597333-0.085333 2.56-0.768 4.437333-1.706667s4.266667-1.621333 5.205334-1.706666c1.024 0 4.266667-0.768 7.168-1.706667 6.997333-2.218667 25.173333-2.389333 32.853333-0.341333 2.816 0.768 6.656 1.706667 8.533333 2.048 3.242667 0.682667 8.789333 2.816 14.506667 5.546666 1.450667 0.682667 3.498667 1.621333 4.693333 2.133334s3.669333 1.792 5.546667 2.986666c1.877333 1.109333 4.266667 2.474667 5.376 2.901334 5.546667 2.56 14.421333 10.24 29.781333 25.770666 17.664 18.005333 40.533333 41.728 46.08 47.786667 1.024 1.109333 2.474667 2.56 3.242667 3.157333 0.682667 0.597333 1.109333 1.450667 0.853333 1.962667-0.341333 0.426667 0.512 1.194667 1.706667 1.621333 1.28 0.512 1.962667 1.28 1.706667 1.792-0.341333 0.512 0.170667 1.109333 1.194666 1.365334 2.133333 0.512 2.304 2.304 0.512 3.84-4.778667 4.096-6.4 6.058667-6.4 7.509333 0 0.938667-1.706667 3.498667-3.84 5.717333-2.133333 2.133333-3.84 4.693333-3.84 5.717334s-0.768 2.474667-1.706666 3.328c-0.938667 0.768-1.706667 2.304-1.706667 3.413333 0 1.194667-1.365333 3.328-3.413333 5.290667-1.877333 1.877333-3.413333 4.181333-3.413334 5.12 0 1.024-0.768 2.56-1.706666 3.413333s-1.706667 2.389333-1.706667 3.413333c0 0.938667-1.536 3.242667-3.413333 5.12-2.048 1.962667-3.413333 4.096-3.413334 5.290667 0 1.109333-0.768 2.645333-1.706666 3.413333-0.938667 0.853333-1.706667 2.304-1.706667 3.413334s-1.536 3.328-3.84 5.546666c-2.56 2.389333-3.84 4.437333-3.84 5.802667 0 1.450667-1.194667 3.157333-3.413333 5.12-2.816 2.474667-3.413333 3.498667-3.413334 6.229333s-0.256 3.157333-1.877333 3.157334c-1.109333-0.085333-3.669333-1.450667-5.802667-3.242667zM566.272 170.496c1.877333-1.877333 2.901333-3.669333 2.901333-5.12s0.682667-2.645333 1.706667-3.242667 1.706667-1.792 1.706667-3.242666c0-1.621333 1.024-3.157333 3.413333-5.290667s3.413333-3.669333 3.413333-5.290667c0-1.450667 0.682667-2.816 1.706667-3.413333 1.024-0.682667 1.706667-2.048 1.706667-3.242667 0-1.450667 1.109333-3.242667 3.413333-5.376 1.877333-1.706667 3.413333-3.925333 3.413333-4.864 0-1.024 1.706667-3.669333 3.84-5.888s3.84-4.864 3.84-5.802666 0.768-2.389333 1.706667-3.242667 1.706667-2.389333 1.706667-3.413333 0.938667-2.730667 2.133333-3.84c2.730667-2.645333 2.730667-3.413333-0.341333-3.413334-1.365333 0-4.096-0.768-6.144-1.706666-4.437333-1.962667-8.277333-2.133333-13.738667-0.426667-2.218667 0.682667-6.4 1.450667-9.216 1.792-2.901333 0.341333-6.656 1.28-8.362667 2.133333-1.706667 0.938667-3.669333 1.621333-4.437333 1.621334s-2.048 0.512-2.986667 1.194666c-0.938667 0.597333-2.645333 1.450667-3.84 1.792s-3.072 1.365333-4.181333 2.218667c-1.109333 0.938667-2.474667 1.621333-3.157333 1.621333-2.304 0-26.794667 17.92-26.794667 19.712 0 0.426667 0.938667 0.768 2.048 0.768 1.962667 0 6.656 4.181333 27.221333 24.234667 4.181333 4.010667 7.936 7.338667 8.362667 7.338667s0.768 0.512 0.768 1.109333c0 0.768 3.498667 3.584 5.034667 3.925333 0.170667 0.085333 1.621333-1.194667 3.157333-2.645333zM461.653333 179.2c0-1.621333 1.706667-2.304 2.816-1.109333 0.682667 0.597333-0.938667 2.816-2.048 2.816-0.426667 0-0.768-0.768-0.768-1.706667zM465.578667 176.213333c-0.341333-0.853333 0.085333-1.28 1.365333-1.28 1.450667 0 1.536 0.170667 0.682667 1.28-0.597333 0.682667-1.194667 1.28-1.28 1.28-0.170667 0-0.426667-0.597333-0.768-1.28zM338.090667 154.282667c0.597333-1.621333 2.986667-1.792 2.986666-0.256 0 0.682667-0.768 1.28-1.621333 1.28-0.938667 0-1.536-0.426667-1.365333-1.024zM342.186667 150.613333c0-0.682667 0.597333-1.28 1.365333-1.28 1.194667 0 1.194667 0.256 0.341333 1.28-0.597333 0.682667-1.194667 1.28-1.365333 1.28s-0.341333-0.597333-0.341333-1.28z" fill="#0E74FF" p-id="6496"></path><path d="M815.36 711.765333c-1.365333-0.341333-3.413333-1.109333-4.437333-1.621333-1.024-0.597333-2.645333-1.024-3.584-1.024-2.986667 0-11.434667-4.778667-17.578667-9.984-6.997333-5.973333-13.141333-14.677333-16.384-23.296-2.218667-5.973333-2.389333-7.253333-2.389333-19.626667s0.170667-13.568 2.304-18.773333c5.034667-12.117333 5.12-12.373333 56.490666-63.573333 27.221333-27.221333 50.432-50.773333 51.456-52.309334 2.901333-4.181333 2.730667-11.349333-0.341333-15.445333-1.28-1.706667-23.466667-24.234667-49.322667-50.090667-47.530667-47.701333-50.602667-50.858667-53.845333-55.381333-4.522667-6.4-8.874667-21.333333-8.874667-30.464 0-4.352 2.986667-19.2 4.181334-20.736 0.426667-0.426667 1.024-1.792 1.365333-2.816 0.853333-2.986667 5.034667-8.874667 10.069333-14.336 6.229333-6.826667 12.8-10.922667 23.637334-14.592 5.461333-1.877333 7.850667-2.218667 16.64-2.218667 8.874667 0 11.178667 0.341333 16.64 2.218667 8.192 2.901333 11.690667 4.693333 16.981333 8.874667 7.424 5.888 149.845333 148.053333 152.490667 152.149333 2.816 4.522667 5.376 9.472 8.106666 16.213333 1.706667 4.181333 1.962667 6.144 1.962667 18.346667 0.085333 12.288-0.085333 14.250667-1.962667 19.2-2.730667 7.765333-5.717333 13.226667-10.24 19.2-6.144 8.106667-145.664 147.370667-151.125333 150.869333-6.656 4.266667-11.264 6.570667-13.056 6.570667-0.853333 0-2.730667 0.597333-4.266667 1.450667-3.072 1.536-20.394667 2.389333-24.917333 1.194666z m20.48-6.058666c5.290667-1.024 10.154667-3.072 16.384-6.826667 4.010667-2.304 104.106667-102.656 148.736-148.906667 0.938667-1.024 1.706667-2.218667 1.706667-2.816s0.597333-1.024 1.28-1.024c0.768 0 1.28-0.768 1.28-2.048 0-1.194667 0.853333-2.730667 1.877333-3.498666 1.536-1.024 1.792-1.621333 1.024-2.816-0.512-0.768-2.048-1.621333-3.413333-1.706667-1.450667-0.170667-3.84-1.706667-5.802667-3.669333-1.877333-1.792-4.096-3.328-4.949333-3.328-0.938667 0-3.498667-1.706667-5.717334-3.84s-4.864-3.84-5.802666-3.84c-0.853333 0-3.157333-1.536-4.949334-3.413334s-4.096-3.413333-5.12-3.413333-3.328-1.536-5.12-3.413333c-1.877333-1.877333-4.181333-3.413333-5.12-3.413334-1.024 0-2.56-0.768-3.413333-1.706666s-2.389333-1.706667-3.328-1.706667c-1.024 0-3.328-1.536-5.205333-3.413333-1.877333-1.792-4.266667-3.328-5.290667-3.413334-1.024 0-3.498667-1.706667-5.632-3.84s-4.693333-3.84-5.632-3.84-3.328-1.536-5.205333-3.413333c-2.048-1.962667-4.266667-3.413333-5.461334-3.413333-1.109333 0-2.645333-0.768-3.498666-1.706667s-2.389333-1.706667-3.328-1.706667c-1.024 0-3.328-1.536-5.12-3.413333-1.877333-1.877333-4.181333-3.413333-5.205334-3.413333-0.938667 0-3.328-1.536-5.12-3.413334s-4.096-3.413333-5.12-3.413333c-0.938667 0-3.498667-1.706667-5.546666-3.84-2.133333-2.218667-4.522667-3.84-5.632-3.84-0.938667 0-2.474667-0.768-3.328-1.706667s-2.389333-1.706667-3.413334-1.706666c-0.938667 0-3.242667-1.536-5.12-3.413334-1.792-1.877333-4.096-3.413333-5.12-3.413333s-3.413333-1.536-5.376-3.413333c-1.877333-1.877333-4.181333-3.413333-5.034666-3.413334s-3.157333-1.536-5.205334-3.413333-4.352-3.413333-5.205333-3.413333-3.328-1.706667-5.546667-3.84c-2.389333-2.218667-4.949333-3.84-5.973333-3.84-1.109333 0-2.645333-0.768-3.498667-1.706667s-2.304-1.706667-3.157333-1.706667-3.242667-1.536-5.12-3.413333c-1.962667-1.877333-4.352-3.413333-5.376-3.413333-0.938667 0-3.242667-1.536-5.034667-3.413334-1.877333-1.877333-4.181333-3.413333-5.205333-3.413333-0.938667 0-3.328-1.536-5.12-3.413333s-4.096-3.413333-5.034667-3.413334-3.498667-1.792-5.717333-3.925333c-3.157333-3.072-4.437333-3.84-6.4-3.584l-2.474667 0.256 1.962667 1.706667c1.024 0.938667 1.877333 2.304 1.877333 3.157333s0.597333 1.536 1.28 1.536c0.768 0 1.706667 0.938667 2.133334 2.133333s1.365333 2.133333 2.048 2.133334c0.597333 0 1.365333 0.768 1.621333 1.706666s1.024 1.706667 1.706667 1.706667 1.450667 0.768 1.706666 1.706667 1.024 1.706667 1.792 1.706666 1.365333 0.597333 1.365334 1.365334 0.768 1.536 1.706666 1.792 1.706667 0.768 1.706667 1.194666 11.946667 12.714667 26.453333 27.306667c14.592 14.592 26.453333 26.88 26.453334 27.306667s0.512 0.768 1.194666 0.768 1.536 0.768 1.792 1.706666 1.109333 1.706667 1.792 1.706667 1.194667 0.256 1.194667 0.682667c0 0.597333 7.338667 8.277333 11.861333 12.288 1.450667 1.28 2.645333 2.730667 2.645334 3.242666 0 0.426667 0.341333 0.853333 0.768 0.853334s2.133333 1.450667 3.84 3.157333c1.706667 1.792 3.669333 3.925333 4.437333 4.693333 1.28 1.365333 2.389333 4.949333 3.413333 11.349334 0.682667 3.669333-1.792 12.032-4.352 15.104-1.194667 1.450667-11.861333 12.032-23.552 23.637333-36.949333 36.266667-75.349333 74.752-77.141333 77.312-2.901333 4.181333-5.717333 10.069333-6.485333 13.226667-0.341333 1.621333-1.194667 4.522667-1.962667 6.4-1.621333 4.352-1.621333 12.714667 0 17.066666 0.768 1.877333 1.706667 5.12 2.133333 7.168 0.426667 2.133333 1.365333 4.437333 2.048 5.205334s1.28 1.706667 1.28 2.133333c0 1.450667 4.693333 7.68 8.96 11.946667 7.424 7.509333 15.36 11.861333 26.026667 14.336 6.144 1.450667 11.434667 1.365333 19.2-0.256zM499.114667 634.965333c-4.010667-0.341333-7.850667-1.024-8.533334-1.365333-0.597333-0.426667-3.498667-1.28-6.314666-1.792-8.533333-1.792-25.173333-8.704-32.938667-13.824-14.250667-9.216-28.586667-22.528-35.157333-32.597333-1.024-1.536-2.474667-3.754667-3.157334-4.778667-2.474667-3.669333-6.570667-11.008-8.704-15.701333-4.181333-8.96-4.949333-10.922667-4.949333-12.288 0-0.768-0.597333-2.816-1.365333-4.608-2.730667-6.570667-5.632-29.013333-4.949334-38.570667 0.853333-12.8 4.608-29.866667 8.277334-38.4 3.242667-7.594667 5.802667-13.226667 6.570666-14.506667 0.426667-0.682667 1.962667-3.413333 3.498667-5.973333 1.450667-2.56 3.242667-5.290667 3.84-5.973333 0.682667-0.682667 3.157333-3.754667 5.632-6.826667 6.656-8.192 16.469333-17.408 23.381333-22.016 14.08-9.216 22.528-13.312 36.181334-17.408 11.861333-3.584 19.029333-4.522667 34.133333-4.522667 18.346667 0 26.709333 1.536 45.909333 8.533334 4.010667 1.450667 13.909333 6.570667 19.2 9.898666 8.618667 5.461333 15.872 11.690667 25.344 21.76 5.632 6.058667 12.544 15.616 15.786667 22.101334 0.682667 1.450667 1.621333 3.157333 2.048 3.84 2.218667 3.584 6.4 14.250667 7.936 20.053333 0.512 1.877333 1.450667 5.12 2.133333 7.253333 3.242667 10.581333 3.498667 41.813333 0.341334 52.906667-0.853333 3.072-1.962667 7.082667-2.474667 8.96-1.536 6.229333-6.058667 16.298667-12.885333 29.354667-1.28 2.474667-7.68 10.752-13.738667 17.834666-4.266667 5.12-17.834667 16.469333-24.149333 20.309334-7.253333 4.352-12.117333 7.168-13.397334 7.68-0.682667 0.256-2.986667 1.194667-5.12 2.048-8.448 3.328-13.397333 5.034667-16.64 5.546666-1.877333 0.256-5.034667 1.109333-6.997333 1.706667-4.352 1.450667-28.074667 2.304-38.741333 1.365333z m29.098666-5.632c2.56-0.597333 6.997333-1.365333 9.813334-1.621333 2.816-0.341333 5.888-1.109333 6.826666-1.706667s3.157333-1.365333 5.034667-1.706666c1.792-0.341333 4.693333-1.365333 6.4-2.304 1.706667-0.853333 3.498667-1.621333 4.010667-1.621334 0.853333 0 7.850667-3.754667 12.714666-6.826666 1.450667-0.938667 3.754667-2.304 5.12-3.072 4.437333-2.474667 9.984-7.168 18.176-15.530667 9.130667-9.386667 14.592-16.981333 20.224-28.330667 2.218667-4.437333 4.693333-9.557333 5.632-11.264 0.853333-1.706667 1.621333-4.096 1.621334-5.376 0-1.194667 0.768-3.584 1.706666-5.290666 1.28-2.389333 1.706667-4.864 1.706667-9.216 0-4.010667 0.426667-6.656 1.28-7.765334s1.194667-3.84 1.28-8.533333v-6.912l-3.157333-0.597333c-1.792-0.256-4.778667-0.512-6.570667-0.512-1.962667 0-4.010667-0.597333-4.949333-1.450667-1.024-0.853333-3.584-1.536-6.826667-1.792-3.072-0.256-6.4-1.109333-7.850667-1.962667-1.706667-1.024-4.266667-1.621333-7.168-1.621333-3.328 0-5.205333-0.512-6.741333-1.706667-1.621333-1.194667-3.498667-1.706667-6.826667-1.706666-3.413333 0-5.290667-0.512-6.826666-1.706667-1.621333-1.194667-3.498667-1.706667-6.826667-1.706667-3.413333 0-5.290667-0.512-6.826667-1.706666-1.621333-1.28-3.498667-1.706667-7.082666-1.706667-3.669333 0-5.461333-0.426667-7.168-1.792-1.365333-1.109333-4.010667-1.877333-7.082667-2.218667-2.730667-0.256-6.485333-1.194667-8.448-2.048-1.877333-0.853333-4.949333-1.621333-6.826667-1.621333s-4.864-0.768-6.741333-1.706667c-2.048-1.024-5.034667-1.706667-7.594667-1.706666-2.730667 0-4.778667-0.512-5.802666-1.450667s-3.584-1.536-6.912-1.792c-3.157333-0.256-5.888-0.938667-6.826667-1.706667-0.853333-0.768-3.669333-1.536-6.741333-1.706666-3.072-0.256-6.4-1.109333-7.850667-1.962667-1.706667-1.024-4.266667-1.621333-7.168-1.621333-3.328 0-5.205333-0.512-6.741333-1.706667-1.621333-1.194667-3.498667-1.706667-6.826667-1.706667-3.413333 0-5.290667-0.512-6.826667-1.706666-1.621333-1.194667-3.498667-1.706667-6.826666-1.706667-3.413333 0-5.290667-0.512-6.826667-1.706667-1.621333-1.28-3.498667-1.706667-7.082667-1.706666s-5.461333-0.426667-7.082666-1.706667c-2.730667-2.133333-4.010667-2.133333-4.010667-0.085333 0 0.938667-0.768 1.962667-1.706667 2.218666-1.194667 0.341333-1.706667 1.28-1.706666 3.072 0 1.536-0.597333 2.816-1.706667 3.498667s-1.706667 2.048-1.706667 3.754667c0 1.450667-0.768 3.669333-1.706666 4.864s-1.962667 4.010667-2.304 6.314666c-0.256 2.218667-1.28 5.546667-2.218667 7.253334-1.450667 2.901333-1.621333 5.12-1.621333 23.466666 0 18.858667 0.085333 20.565333 1.792 24.149334 0.938667 2.133333 1.792 5.12 1.792 6.570666 0 1.536 0.768 4.010667 1.706666 5.546667s1.706667 3.413333 1.706667 4.181333 1.877333 5.034667 4.266667 9.386667c2.304 4.437333 4.693333 8.96 5.290666 10.154667 0.938667 1.877333 4.437333 6.656 10.24 13.909333 2.901333 3.584 12.544 12.885333 16.469334 15.872 1.877333 1.450667 4.010667 3.072 4.693333 3.669333 1.450667 1.28 2.730667 2.133333 7.509333 4.693334 1.877333 1.109333 3.669333 2.304 4.010667 2.816 0.256 0.426667 1.194667 0.853333 2.048 0.853333s2.56 0.768 3.754667 1.706667 2.645333 1.706667 3.328 1.706666c0.597333 0 2.56 0.768 4.266666 1.706667 1.792 0.938667 4.693333 2.048 6.4 2.474667 1.792 0.426667 4.778667 1.365333 6.656 2.133333 1.877333 0.682667 4.949333 1.28 6.826667 1.365333 1.877333 0 4.778667 0.426667 6.4 0.938667 7.424 2.304 20.394667 2.474667 29.013333 0.341333z" fill="#F62D3D" p-id="6497"></path><path d="M495.36 1017.856c-6.656-2.133333-11.52-4.608-17.834667-8.789333-6.4-4.266667-460.373333-457.728-462.592-462.08-0.853333-1.621333-1.792-3.157333-2.048-3.413334-1.28-0.938667-5.205333-9.642667-5.205333-11.434666 0-1.024-0.682667-2.816-1.450667-3.925334-2.218667-3.157333-2.730667-24.405333-0.682666-29.866666 0.768-2.133333 1.706667-5.205333 2.048-6.826667s1.877333-4.864 3.328-7.253333c1.536-2.304 3.072-5.205333 3.584-6.4 0.512-1.109333 1.536-2.645333 2.218666-3.413334 3.584-3.925333 95.488-95.488 122.794667-122.453333 55.125333-54.442667 60.074667-59.306667 61.013333-59.306667 0.426667 0 0.853333-0.597333 0.853334-1.365333s0.768-1.536 1.706666-1.792 1.706667-1.024 1.706667-1.621333c0-0.682667 0.938667-1.621333 2.133333-2.048s2.133333-1.365333 2.133334-2.133334c0-0.682667 0.768-1.28 1.706666-1.28 1.109333 0 1.706667-0.597333 1.706667-1.706666s0.597333-1.706667 1.706667-1.706667c0.938667 0 1.706667-0.512 1.706666-1.194667 0-3.072 3.498667-2.474667 4.949334 0.853334 0.938667 1.962667 1.194667 2.048 10.581333 2.048 8.704 0 9.728 0.170667 10.752 1.706666 0.938667 1.536 1.962667 1.706667 8.704 1.706667s7.765333 0.170667 8.533333 1.706667 1.792 1.706667 8.448 1.706666c6.4 0 7.765333 0.256 9.045334 1.706667s2.645333 1.706667 9.045333 1.706667c6.656 0 7.68 0.170667 8.448 1.706666s1.792 1.706667 8.533333 1.706667 7.765333 0.170667 8.704 1.706667c0.938667 1.450667 2.048 1.706667 8.448 1.706666 6.656 0 7.594667 0.170667 9.642667 2.133334 1.365333 1.194667 2.986667 2.048 3.754667 1.792 5.12-1.365333 7.850667-1.365333 7.850666-0.085334 0 0.682667-0.768 1.28-1.706666 1.28-1.109333 0-1.706667 0.597333-1.706667 1.706667s-0.597333 1.706667-1.706667 1.706667c-1.194667 0-1.706667 0.597333-1.706666 1.792 0 1.024-0.682667 1.962667-1.706667 2.218666-0.938667 0.256-1.706667 0.853333-1.706667 1.28 0 0.512-2.304 3.072-5.12 5.802667s-5.12 5.290667-5.12 5.802667-0.768 1.194667-1.706666 1.450666-1.706667 0.853333-1.706667 1.28c0 0.853333-29.013333 30.293333-110.933333 112.554667-34.474667 34.645333-63.658667 64.341333-64.853334 65.877333-2.986667 4.096-2.816 10.24 0.256 14.762667 2.730667 3.84 355.669333 356.608 361.813334 361.557333 3.669333 2.901333 4.693333 3.328 8.533333 3.328 3.072-0.085333 5.376-0.682667 7.68-2.048 1.792-1.109333 31.317333-29.952 65.706667-64.170666 94.805333-94.378667 88.064-88.149333 102.058666-92.928 6.4-2.218667 7.424-2.304 19.029334-1.962667 12.714667 0.426667 12.8 0.426667 23.637333 5.717333 2.56 1.194667 7.68 5.205333 11.605333 8.96 5.717333 5.376 7.765333 8.021333 10.666667 13.909334 4.949333 9.984 6.656 20.309333 5.205333 31.744-0.512 4.437333-1.706667 9.728-2.645333 11.861333-0.938667 2.048-1.706667 4.181333-1.706667 4.693333 0 1.024-3.413333 6.229333-6.656 10.410667-3.413333 4.266667-190.634667 191.744-195.242666 195.413333-2.304 1.877333-5.376 4.181333-6.741334 5.12-6.997333 4.693333-19.2 8.96-25.429333 8.96-3.328 0-4.010667-0.256-4.010667-1.621333 0-1.194667 0.853333-1.706667 3.242667-2.048 8.618667-1.450667 16.298667-4.437333 24.917333-9.813333 3.157333-1.877333 29.781333-28.074667 79.36-77.824 101.034667-101.376 118.869333-119.466667 120.746667-122.368 0.938667-1.365333 2.133333-3.072 2.56-3.84 0.512-0.768 1.536-2.304 2.389333-3.413334 0.768-1.109333 1.450667-2.816 1.450667-3.754666s0.768-2.901333 1.706667-4.437334c1.536-2.474667 1.792-4.266667 1.792-14.08 0-9.728-0.256-11.776-1.792-14.677333-0.938667-1.792-1.706667-4.010667-1.706667-4.864s-0.597333-2.048-1.365333-2.645333c-0.682667-0.682667-1.792-2.389333-2.474667-3.925334-1.706667-4.181333-14.592-16.554667-17.237333-16.554666-0.597333 0-1.706667-0.682667-2.56-1.621334-0.853333-0.853333-3.072-1.877333-4.949334-2.133333-1.877333-0.341333-4.266667-1.194667-5.376-1.877333-2.730667-1.792-20.650667-1.792-23.381333 0-1.109333 0.682667-3.328 1.450667-4.949333 1.792s-3.925333 1.365333-5.034667 2.218666c-1.109333 0.938667-2.730667 1.621333-3.584 1.621334-0.938667 0-1.621333 0.341333-1.621333 0.682666s-1.450667 1.792-3.328 3.157334c-1.792 1.450667-35.669333 34.730667-75.349334 74.069333s-73.472 72.448-75.178666 73.642667c-2.730667 1.792-4.010667 2.048-11.093334 2.048-6.912 0-8.362667-0.256-10.496-1.877334-2.56-1.877333-16.042667-15.274667-169.301333-167.850666-49.493333-49.322667-93.610667-93.184-97.877333-97.450667-4.352-4.266667-7.936-8.106667-7.936-8.533333s-0.341333-0.768-0.853334-0.768c-0.426667 0-10.154667-9.386667-21.674666-20.906667s-21.248-20.906667-21.674667-20.906667-1.024-0.768-1.28-1.706666-1.024-1.706667-1.792-1.706667-1.365333-0.341333-1.365333-0.682667c0-1.024-5.632-6.997333-6.656-6.997333-0.426667 0-1.024-0.768-1.28-1.706667s-1.024-1.706667-1.706667-1.706666-1.450667-0.768-1.706667-1.706667-1.024-1.706667-1.706666-1.706667-1.450667-0.768-1.706667-1.706666-1.024-1.706667-1.706667-1.706667-1.450667-0.768-1.706666-1.706667-1.024-1.706667-1.706667-1.706666-1.450667-0.768-1.706667-1.706667c-0.256-1.024-1.194667-1.706667-2.218666-1.706667-1.194667 0-1.792-0.512-1.792-1.706666 0-1.109333-0.597333-1.706667-1.706667-1.706667s-1.706667-0.597333-1.706667-1.706667-0.597333-1.706667-1.706666-1.706666c-0.938667 0-1.706667-0.512-1.706667-1.024 0-0.853333-1.706667-1.024-6.314667-0.853334-5.717333 0.256-6.570667 0.085333-8.362666-1.706666s-2.730667-1.962667-9.386667-1.962667c-6.741333 0-7.594667-0.170667-8.789333-1.877333-1.28-1.792-2.048-1.962667-8.789334-1.962667-6.4 0-7.68-0.256-8.96-1.706667-1.28-1.536-2.474667-1.706667-10.581333-1.706666-8.277333 0-9.301333-0.170667-10.325333-1.706667-0.938667-1.536-1.962667-1.706667-8.704-1.706667s-7.765333-0.170667-8.533334-1.706666-1.792-1.706667-8.448-1.706667c-6.4 0-7.765333-0.256-9.045333-1.706667s-2.645333-1.706667-9.045333-1.706666c-6.656 0-7.68-0.170667-8.448-1.706667-0.768-1.450667-1.792-1.706667-7.253334-1.706667h-6.4v5.888c0 4.181333 0.426667 6.314667 1.28 7.253334 0.682667 0.682667 1.536 3.584 1.792 6.4 0.341333 2.986667 1.024 5.290667 1.706667 5.546666 0.597333 0.256 1.365333 1.792 1.706667 3.413334 0.256 1.706667 0.853333 3.072 1.194666 3.072 0.597333 0 1.706667 1.536 5.546667 7.68 0.512 0.768 6.314667 6.826667 13.056 13.568 6.656 6.741333 12.117333 12.629333 12.117333 13.056 0 0.341333 0.512 0.682667 1.194667 0.682666s1.536 0.768 1.792 1.706667 1.109333 1.706667 1.792 1.706667 1.194667 0.341333 1.194667 0.768c0 1.28 417.28 418.901333 423.936 424.277333 9.045333 7.338667 19.114667 11.776 29.866666 13.312 1.962667 0.341333 2.730667 0.853333 2.730667 2.048 0 1.365333-0.597333 1.621333-4.437333 1.536-2.474667 0-6.826667-0.853333-9.642667-1.792zM342.784 298.922667c-1.024-0.938667-0.682667-1.962667 0.682667-1.962667 0.682667 0 1.28 0.597333 1.28 1.28 0 1.365333-1.024 1.706667-1.962667 0.682667zM219.904 274.261333c-0.682667-0.682667 0.085333-2.048 1.194667-2.048 0.426667 0 0.768 0.597333 0.768 1.28 0 1.28-1.024 1.706667-1.962667 0.768zM566.784 182.528c0.170667-0.512 0.682667-0.853333 1.109333-0.853333s0.938667 0.341333 1.109334 0.853333-0.341333 0.938667-1.109334 0.938667-1.28-0.426667-1.109333-0.938667zM563.2 178.773333c0-0.682667-0.341333-1.28-0.768-1.28-0.341333 0-1.706667-0.938667-2.986667-2.133333s-2.645333-2.133333-3.157333-2.133333c-0.426667 0-0.768-0.597333-0.768-1.28s-0.341333-1.28-0.768-1.28-4.181333-3.328-8.362667-7.338667c-22.442667-21.845333-24.917333-23.978667-28.416-24.576-6.4-1.024-5.717333-2.474667 4.949334-10.922667 9.813333-7.68 19.456-14.336 20.992-14.336 0.682667 0 2.048-0.682667 3.157333-1.621333 1.109333-0.853333 2.986667-1.877333 4.181333-2.218667s2.901333-1.194667 3.84-1.792c0.938667-0.682667 2.218667-1.194667 2.986667-1.194666s2.730667-0.682667 4.437333-1.621334c1.706667-0.853333 5.461333-1.792 8.362667-2.133333 2.816-0.341333 6.997333-1.109333 9.216-1.792 5.717333-1.792 14.336-1.621333 18.602667 0.341333 1.962667 0.853333 5.888 1.877333 8.789333 2.218667 2.816 0.341333 5.205333 0.768 5.205333 0.853333 0 0.170667-2.133333 2.304-4.693333 4.778667-2.901333 2.730667-4.693333 5.12-4.693333 6.314667 0 1.024-0.768 2.56-1.706667 3.413333s-1.706667 2.304-1.706667 3.328c0 0.938667-1.536 3.328-3.498666 5.290667-1.877333 1.962667-3.584 4.522667-3.669334 5.717333-0.170667 1.194667-1.792 3.498667-3.84 5.376-2.304 2.218667-3.498667 4.010667-3.498666 5.461333 0 1.194667-0.682667 2.56-1.706667 3.242667-1.024 0.597333-1.706667 1.962667-1.706667 3.413333 0 1.621333-1.024 3.157333-3.413333 5.290667s-3.413333 3.669333-3.413333 5.290667c0 1.450667-0.682667 2.645333-1.706667 3.242666-1.109333 0.597333-1.706667 1.792-1.706667 3.242667 0 1.706667-1.024 3.328-3.328 5.461333-2.474667 2.304-3.242667 3.584-2.901333 4.864s0.085333 1.792-0.938667 1.792c-0.768 0-1.365333-0.597333-1.365333-1.28z" fill="#0E74FF" p-id="6498"></path><path d="M819.626667 709.546667c-2.816-0.682667-6.656-1.450667-8.533334-1.792-6.912-1.28-16.128-6.656-22.954666-13.397334-4.352-4.352-9.045333-10.666667-9.045334-12.117333 0-0.426667-0.597333-1.365333-1.28-2.133333s-1.621333-3.072-2.048-5.205334c-0.426667-2.048-1.365333-5.290667-2.133333-7.168-1.706667-4.608-1.706667-17.578667 0-22.186666 0.768-1.877333 1.621333-4.778667 1.962667-6.4 0.768-3.157333 3.584-9.045333 6.485333-13.226667 1.792-2.56 40.192-41.045333 77.141333-77.312 11.690667-11.605333 22.357333-22.186667 23.552-23.637333 2.645333-3.157333 4.864-11.008 3.754667-13.141334-0.426667-0.768-0.768-2.389333-0.768-3.498666 0-1.194667-0.853333-3.157333-1.877333-4.437334-3.669333-4.266667-7.68-8.106667-8.448-8.106666-0.426667 0-0.768-0.426667-0.768-0.853334 0-0.512-1.194667-1.962667-2.645334-3.242666-4.522667-4.010667-11.861333-11.690667-11.861333-12.288 0-0.426667-0.512-0.682667-1.194667-0.682667s-1.536-0.768-1.792-1.706667-1.109333-1.706667-1.792-1.706666-1.194667-0.341333-1.194666-0.768-11.861333-12.714667-26.453334-27.306667c-14.506667-14.592-26.453333-26.88-26.453333-27.392 0-0.426667-0.597333-0.853333-1.365333-0.853333s-1.536-0.768-1.792-1.706667-1.024-1.706667-1.706667-1.706667-1.450667-0.768-1.706667-1.706666-1.024-1.706667-1.706666-1.706667-1.450667-0.768-1.706667-1.706667-1.024-1.706667-1.621333-1.706666c-0.682667 0-1.621333-0.938667-2.048-2.133334s-1.365333-2.133333-2.133334-2.133333c-0.682667 0-1.28-0.768-1.28-1.706667s-0.597333-1.962667-1.28-2.218666-1.706667-1.792-2.304-3.413334c-0.512-1.621333-1.536-2.901333-2.133333-2.901333-0.768 0-1.109333-1.450667-1.109333-4.693333 0-4.864 1.28-6.314667 2.218666-2.56 0.341333 1.536 1.109333 2.133333 2.56 2.133333 1.109333 0 2.474667 0.768 3.072 1.706667 0.682667 1.024 2.048 1.706667 3.242667 1.706666 1.450667 0 3.498667 1.28 5.973333 3.84 2.304 2.389333 4.266667 3.669333 5.12 3.413334s2.816 1.024 5.12 3.413333c2.133333 2.133333 4.522667 3.84 5.546667 3.84s3.328 1.536 5.205333 3.413333c1.792 1.877333 4.096 3.413333 5.034667 3.413334 1.024 0 3.413333 1.536 5.376 3.413333 1.877333 1.877333 4.266667 3.413333 5.12 3.413333s2.304 0.768 3.157333 1.706667 2.389333 1.706667 3.498667 1.706667 3.498667 1.536 5.546667 3.498666 4.437333 3.584 5.461333 3.669334c0.938667 0.170667 3.498667 1.792 5.546667 3.754666 2.133333 1.962667 4.522667 3.584 5.376 3.584s3.157333 1.536 5.034666 3.413334c1.962667 1.877333 4.352 3.413333 5.376 3.413333s3.328 1.536 5.12 3.413333c1.877333 1.877333 4.181333 3.413333 5.12 3.413334 1.024 0 2.56 0.768 3.413334 1.706666s2.389333 1.706667 3.328 1.706667c1.109333 0 3.498667 1.621333 5.632 3.84 2.304 2.389333 4.266667 3.669333 5.12 3.413333s2.816 1.024 5.12 3.413334c2.133333 2.133333 4.522667 3.84 5.546666 3.84s3.328 1.536 5.205334 3.413333c1.792 1.877333 4.096 3.413333 5.12 3.413333 0.938667 0 2.474667 0.768 3.328 1.706667s2.389333 1.706667 3.498666 1.706667c1.194667 0 3.413333 1.450667 5.461334 3.413333 1.877333 1.877333 4.266667 3.413333 5.205333 3.413333s3.498667 1.706667 5.546667 3.84c2.389333 2.304 4.266667 3.584 5.12 3.242667 0.768-0.256 2.730667 1.024 5.205333 3.498667 2.304 2.218667 4.864 3.925333 5.888 3.925333 0.938667 0 2.474667 0.768 3.328 1.706667s2.389333 1.706667 3.413333 1.706666c0.938667 0 3.242667 1.536 5.12 3.413334 1.792 1.877333 4.096 3.413333 5.12 3.413333s3.328 1.536 5.12 3.413333 4.096 3.413333 4.949334 3.413334c0.938667 0 3.584 1.706667 5.802666 3.84s4.608 3.584 5.205334 3.413333c0.682667-0.256 2.901333 1.28 4.949333 3.413333 2.56 2.474667 4.608 3.84 6.058667 3.84 2.986667 0 4.181333 1.536 4.181333 5.546667 0 2.474667-0.426667 3.754667-1.706667 4.522667-0.938667 0.597333-1.706667 1.962667-1.706666 3.157333 0 1.365333-0.512 2.133333-1.28 2.133333-0.682667 0-1.28 0.426667-1.28 1.024s-0.768 1.792-1.706667 2.816c-39.850667 41.301333-144.64 146.517333-147.797333 148.394667-6.485333 3.84-12.117333 6.485333-13.909334 6.485333-1.024 0-3.754667 0.512-6.058666 1.194667-6.741333 1.962667-10.666667 2.218667-16.128 0.938667z m16.213333-4.693334c3.328-0.597333 6.570667-1.536 7.253333-2.133333s2.218667-1.365333 3.413334-1.706667 3.072-1.365333 4.181333-2.218666c1.109333-0.938667 2.474667-1.621333 2.901333-1.621334 0.512 0 10.581333-9.813333 22.357334-21.76 28.586667-29.098667 33.706667-34.474667 33.706666-35.242666-0.085333-1.621333-5.290667-6.144-7.082666-6.144-1.194667 0-3.242667-1.365333-5.205334-3.328-1.792-1.792-4.352-3.498667-5.717333-3.84-1.365333-0.256-3.84-1.962667-5.546667-3.925334-1.962667-2.218667-3.84-3.413333-5.12-3.413333-1.365333 0-3.242667-1.28-5.205333-3.413333-2.218667-2.389333-3.84-3.413333-5.546667-3.413334-1.450667 0-2.645333-0.597333-3.242666-1.706666-0.597333-1.024-1.792-1.706667-3.242667-1.706667-1.621333 0-3.157333-1.024-5.290667-3.413333-1.877333-2.133333-3.754667-3.413333-5.034666-3.413334-1.194667 0-3.328-1.365333-5.290667-3.413333-1.877333-1.877333-4.096-3.413333-5.034667-3.413333s-3.498667-1.706667-5.717333-3.84c-2.133333-2.133333-4.608-3.84-5.461333-3.84-0.768 0-2.048-0.170667-2.730667-0.512-1.365333-0.512-8.362667 5.888-29.525333 27.050666-13.653333 13.653333-17.152 17.664-17.152 19.797334 0 0.597333-0.768 1.877333-1.706667 2.730666-1.109333 1.024-1.706667 2.645333-1.706667 4.608 0 1.706667-0.768 4.266667-1.706666 5.632-2.133333 3.242667-2.474667 15.189333-0.426667 18.090667 0.682667 0.938667 1.450667 3.413333 1.792 5.461333 0.256 2.048 1.28 4.778667 2.133333 6.058667s1.621333 2.816 1.621334 3.498667 0.768 1.877333 1.706666 2.730666 1.706667 1.877333 1.706667 2.218667c0 2.474667 16.64 16.128 19.626667 16.128 0.597333 0 1.792 0.597333 2.56 1.28s4.181333 1.621333 7.68 2.133333 6.485333 1.109333 6.741333 1.365334c0.512 0.512 3.669333 0.170667 13.312-1.365334zM505.173333 633.173333c-3.072-0.426667-6.912-1.109333-8.533333-1.621333s-4.522667-0.938667-6.4-0.938667c-1.877333-0.085333-4.949333-0.682667-6.826667-1.365333-1.877333-0.768-4.864-1.706667-6.656-2.133333-1.706667-0.426667-4.608-1.536-6.4-2.474667-1.706667-0.938667-3.669333-1.706667-4.266666-1.706667-0.682667 0-2.133333-0.768-3.328-1.706666s-2.901333-1.706667-3.754667-1.706667-1.792-0.426667-2.048-0.853333c-0.341333-0.512-2.133333-1.706667-4.010667-2.816-4.778667-2.56-6.058667-3.413333-7.509333-4.693334-0.682667-0.597333-2.816-2.218667-4.693333-3.669333-3.925333-2.986667-13.568-12.288-16.469334-15.872-5.802667-7.253333-9.301333-12.032-10.24-13.909333-0.597333-1.194667-2.986667-5.717333-5.290666-10.154667-2.389333-4.352-4.266667-8.618667-4.266667-9.386667s-0.768-2.645333-1.706667-4.181333-1.706667-4.010667-1.706666-5.546667c0-1.450667-0.853333-4.437333-1.877334-6.570666-1.706667-3.584-1.792-5.12-1.792-26.624 0-20.992 0.170667-23.04 1.706667-26.026667 0.938667-1.792 1.962667-5.12 2.218667-7.338667 0.341333-2.304 1.365333-5.12 2.304-6.314666s1.706667-3.413333 1.706666-4.864c0-1.706667 0.597333-3.072 1.706667-3.754667s1.706667-1.962667 1.706667-3.498667c0-1.792 0.512-2.730667 1.706666-3.072 1.024-0.341333 1.706667-1.28 1.706667-2.389333 0-1.024 0.341333-2.474667 0.853333-3.157333 0.682667-1.024 0.938667-1.024 2.389334 0.256 0.853333 0.768 2.133333 1.450667 2.730666 1.450666s1.792 0.597333 2.645334 1.365334c1.024 0.853333 3.328 1.450667 6.656 1.536 3.242667 0.170667 5.888 0.768 7.509333 1.792 1.536 1.024 4.010667 1.706667 6.912 1.706666 3.072 0.085333 5.205333 0.682667 6.826667 1.877334 1.706667 1.28 3.584 1.792 6.826666 1.706666 3.328-0.085333 5.12 0.426667 6.997334 1.792 1.792 1.365333 3.669333 1.877333 6.997333 1.877334 2.901333 0 5.461333 0.597333 7.168 1.621333 1.450667 0.853333 4.778667 1.706667 7.850667 1.962667 3.072 0.170667 5.888 0.938667 6.741333 1.706666 0.938667 0.768 3.669333 1.450667 6.826667 1.706667 3.328 0.256 5.888 0.853333 6.912 1.792s3.072 1.450667 5.802666 1.450667c2.56 0 5.546667 0.682667 7.594667 1.706666 1.877333 0.938667 4.864 1.706667 6.741333 1.706667s4.949333 0.768 6.826667 1.621333c1.962667 0.853333 5.717333 1.792 8.533333 2.048 2.901333 0.256 5.632 1.109333 6.570667 1.877334 1.024 0.938667 3.328 1.536 6.656 1.621333 3.242667 0.170667 5.888 0.768 7.509333 1.792 1.536 1.024 4.010667 1.706667 6.912 1.706667 3.072 0.085333 5.205333 0.682667 6.826667 1.877333 1.706667 1.28 3.584 1.792 6.826667 1.706667s5.12 0.426667 6.912 1.792c1.877333 1.365333 3.669333 1.792 6.741333 1.792 2.816-0.085333 5.376 0.426667 7.509333 1.621333 1.877333 1.024 5.546667 1.877333 8.192 2.133333 2.816 0.170667 5.546667 0.853333 6.4 1.621334 0.938667 0.768 3.754667 1.450667 6.826667 1.706666l5.376 0.341334 0.512-4.096c1.109333-7.936 2.048-2.986667 2.048 10.24-0.085333 10.410667-0.341333 13.738667-1.28 15.018666-0.853333 1.109333-1.28 3.754667-1.28 7.765334 0 4.352-0.426667 6.826667-1.706667 9.216-0.938667 1.706667-1.706667 4.096-1.706666 5.290666 0 1.28-0.768 3.669333-1.621334 5.376-0.938667 1.706667-3.413333 6.826667-5.632 11.264-5.632 11.349333-11.093333 18.944-20.224 28.330667-8.192 8.362667-13.738667 13.056-18.176 15.530667-1.365333 0.768-3.669333 2.133333-5.12 3.072-4.864 3.072-11.861333 6.826667-12.714666 6.826666-0.512 0-2.304 0.768-4.010667 1.621334-1.706667 0.938667-4.608 1.962667-6.4 2.304-1.877333 0.341333-4.096 1.109333-5.034667 1.706666s-4.778667 1.450667-8.533333 1.962667c-3.84 0.426667-7.936 1.28-9.301333 1.706667-3.84 1.536-8.192 1.194667-8.192-0.597334 0-1.877333 5.205333-3.584 13.738666-4.352 3.498667-0.256 7.338667-1.194667 8.533334-1.877333 1.109333-0.768 3.669333-1.536 5.717333-1.877333 2.048-0.256 4.352-1.024 5.205333-1.792s2.304-1.365333 3.242667-1.365334 2.730667-0.768 3.925333-1.706666 2.645333-1.706667 3.328-1.706667 2.474667-0.938667 4.096-2.133333 3.413333-2.133333 4.010667-2.133334c0.682667 0 1.365333-0.512 1.621333-1.194666s1.536-1.621333 2.901334-2.218667 2.645333-1.536 2.901333-2.218667 0.938667-1.194667 1.621333-1.194666c0.597333 0 3.328-2.133333 6.058667-4.778667l5.034667-4.693333-2.645334-2.474667c-2.474667-2.218667-3.072-2.389333-7.253333-1.962667-4.096 0.426667-4.778667 0.256-6.997333-1.792-2.133333-1.962667-2.816-2.133333-6.741334-1.706666-3.925333 0.512-4.693333 0.256-7.082666-1.706667-2.218667-1.877333-3.413333-2.218667-8.106667-2.218667-4.437333 0-5.546667-0.256-6.485333-1.706666-0.853333-1.450667-1.962667-1.706667-6.997334-1.706667s-6.058667-0.256-6.826666-1.706667-1.792-1.706667-6.741334-1.706666c-4.693333 0-6.058667-0.341333-7.338666-1.706667-1.194667-1.365333-2.645333-1.706667-6.826667-1.706667s-5.632-0.341333-6.826667-1.706666c-1.28-1.365333-2.645333-1.706667-7.338666-1.706667-4.949333 0-6.058667-0.256-6.912-1.706667-0.938667-1.450667-2.048-1.706667-6.741334-1.706666-4.522667 0-5.888-0.341333-7.168-1.706667-1.194667-1.365333-2.645333-1.706667-6.656-1.706667-4.096 0-5.461333-0.426667-7.509333-2.048-2.133333-1.792-3.072-2.048-6.997333-1.621333-4.096 0.426667-4.778667 0.256-6.997334-1.792-2.133333-1.962667-2.816-2.133333-6.741333-1.706667-3.925333 0.512-4.693333 0.256-7.082667-1.706666-2.218667-1.877333-3.498667-2.218667-7.68-2.218667-4.010667 0-5.461333-0.341333-6.656-1.706667-1.28-1.365333-2.645333-1.706667-7.338666-1.706666-4.949333 0-5.973333-0.256-6.741334-1.706667-0.938667-1.706667-3.413333-2.389333-3.413333-1.024 0 0.426667 0.768 1.621333 1.706667 2.730667s1.706667 3.072 1.706666 4.437333c0 1.450667 0.768 3.498667 1.706667 4.693333s1.706667 3.072 1.706667 4.096 0.512 2.389333 1.194666 2.901334c0.682667 0.597333 1.450667 1.962667 1.706667 3.157333 0.341333 1.109333 1.28 2.816 2.218667 3.754667s1.706667 2.304 1.706666 2.986666 0.682667 2.048 1.536 2.901334c0.768 0.938667 2.218667 2.730667 3.157334 3.925333 7.509333 10.069333 20.821333 22.869333 28.416 27.306667 0.768 0.512 3.584 2.304 6.229333 4.096 2.645333 1.706667 5.376 3.157333 6.058667 3.157333s2.133333 0.768 3.242666 1.706667 2.730667 1.706667 3.754667 1.706666 2.986667 0.768 4.352 1.706667c1.450667 0.938667 3.498667 1.706667 4.693333 1.706667s3.669333 0.768 5.546667 1.706666 5.034667 1.706667 7.253333 1.706667c2.133333 0 6.912 0.768 10.666667 1.706667s9.216 1.706667 12.202667 1.706666c3.925333 0 5.290667 0.341333 5.290666 1.194667 0 2.218667-4.522667 2.56-15.36 1.365333zM1012.48 535.04c-0.853333-1.365333 0.341333-6.997333 1.365333-6.4 1.024 0.682667 1.024 6.144 0 6.826667-0.426667 0.256-1.109333 0-1.365333-0.426667zM1016.32 519.594667c0-2.048 0.341333-3.242667 0.853333-2.901334 0.512 0.256 0.853333 1.877333 0.853334 3.498667s-0.341333 2.901333-0.853334 2.901333c-0.426667 0-0.853333-1.536-0.853333-3.498666zM774.485333 384.256c-0.256-0.256-0.512-3.242667-0.512-6.570667 0-7.253333 1.28-6.570667 1.962667 0.938667 0.426667 4.949333-0.085333 6.997333-1.450667 5.632z" fill="#F62D3D" p-id="6499"></path><path d="M504.32 1018.88c-13.738667-2.986667-20.992-6.229333-30.037333-13.568-6.656-5.376-423.936-422.997333-423.936-424.277333 0-0.426667-0.512-0.768-1.194667-0.768s-1.536-0.768-1.792-1.706667-1.109333-1.706667-1.792-1.706667-1.194667-0.341333-1.194667-0.682666c0-0.426667-5.461333-6.314667-12.117333-13.056-6.741333-6.741333-12.544-12.8-13.056-13.568-3.84-6.144-4.949333-7.68-5.546667-7.68-0.341333 0-0.938667-1.365333-1.194666-3.072-0.341333-1.621333-1.109333-3.157333-1.706667-3.413334-0.682667-0.256-1.365333-2.56-1.706667-5.546666-0.256-2.816-1.109333-5.717333-1.792-6.4-1.024-1.024-1.28-3.498667-1.28-11.008 0-9.130667 0.853333-12.885333 2.133334-8.96 0.512 1.536 1.28 1.706667 8.106666 1.706666 6.741333 0 7.765333 0.170667 8.533334 1.706667s1.792 1.706667 8.448 1.706667c6.4 0 7.765333 0.256 9.045333 1.706666s2.645333 1.706667 9.045333 1.706667c6.656 0 7.68 0.170667 8.448 1.706667s1.792 1.706667 8.533334 1.706666 7.765333 0.170667 8.704 1.706667c1.024 1.536 2.048 1.706667 10.325333 1.706667 8.106667 0 9.301333 0.170667 10.581333 1.706666 1.28 1.450667 2.56 1.706667 8.96 1.706667 6.570667 0 7.594667 0.170667 8.704 1.792s1.962667 1.792 8.362667 1.706667c6.656-0.170667 7.338667 0 9.642667 2.133333 2.218667 2.048 2.901333 2.218667 6.741333 1.792 2.389333-0.341333 5.205333-0.768 6.314667-1.109333 1.536-0.426667 1.877333-0.170667 1.877333 1.28 0 1.194667 0.512 1.792 1.706667 1.792 1.109333 0 1.706667 0.597333 1.706666 1.706666s0.597333 1.706667 1.706667 1.706667c1.536 0 2.133333 0.853333 1.792 2.816 0 0.341333 0.682667 0.597333 1.706667 0.597333s1.962667 0.682667 2.218666 1.706667c0.256 0.938667 1.024 1.706667 1.706667 1.706667s1.450667 0.768 1.706667 1.706666 1.024 1.706667 1.706666 1.706667 1.450667 0.768 1.706667 1.706667 1.024 1.706667 1.706667 1.706666 1.450667 0.768 1.706666 1.706667 1.024 1.706667 1.706667 1.706667 1.450667 0.768 1.706667 1.706666 0.853333 1.706667 1.28 1.706667c1.024 0 6.656 5.973333 6.656 6.997333 0 0.341333 0.597333 0.682667 1.365333 0.682667s1.536 0.768 1.792 1.706667 0.853333 1.706667 1.28 1.706666 10.154667 9.386667 21.674667 20.906667 21.248 20.906667 21.674666 20.906667c0.512 0 0.853333 0.341333 0.853334 0.768s3.584 4.266667 7.936 8.533333c4.266667 4.266667 48.384 48.128 97.877333 97.450667 153.258667 152.576 166.741333 165.973333 169.301333 167.850666 3.669333 2.816 12.288 2.645333 16.469334-0.170666 1.706667-1.194667 35.498667-34.304 75.178666-73.642667s73.557333-72.618667 75.349334-74.069333c1.877333-1.365333 3.328-2.816 3.328-3.157334s0.682667-0.682667 1.621333-0.682666c0.853333 0 2.474667-0.682667 3.584-1.621334 1.109333-0.853333 3.413333-1.877333 5.034667-2.218666s3.925333-1.194667 5.034666-1.877334c2.986667-1.877333 25.344-1.877333 28.330667 0 1.109333 0.768 3.584 1.621333 5.461333 1.962667 1.877333 0.256 4.096 1.28 4.949334 2.133333 0.853333 0.938667 1.962667 1.621333 2.56 1.621334 2.645333 0 15.530667 12.373333 17.237333 16.554666 0.682667 1.536 1.792 3.242667 2.474667 3.925334 0.768 0.597333 1.365333 1.792 1.365333 2.645333s0.853333 3.157333 1.792 5.034667c1.621333 3.157333 1.792 4.864 1.792 17.066666 0 12.288-0.170667 13.824-1.792 16.469334-1.024 1.621333-1.792 3.669333-1.792 4.608s-0.682667 2.645333-1.450667 3.754666c-0.853333 1.109333-1.877333 2.645333-2.389333 3.413334-4.096 6.485333-2.816 5.205333-123.306667 126.208-49.578667 49.749333-76.202667 75.946667-79.36 77.824-8.533333 5.376-14.848 7.765333-26.026666 10.154666-4.096 0.853333-11.690667 0.853333-15.786667-0.085333zM142.506667 526.08c0-0.682667 0.597333-1.28 1.28-1.28s1.28 0.597333 1.28 1.28-0.597333 1.28-1.28 1.28-1.28-0.597333-1.28-1.28zM139.349333 522.666667c-0.256-0.768-0.256-1.536 0-1.792 0.768-0.768 2.304 0.512 2.304 1.877333 0 1.621333-1.621333 1.536-2.304-0.085333zM136.277333 519.082667c-0.768-0.768-0.682667-10.496 0.170667-12.629334 0.512-1.28 0.768-0.938667 1.194667 1.706667 1.109333 6.570667 0.341333 12.714667-1.365334 10.922667zM9.386667 494.506667c0-4.352 0.853333-5.888 2.133333-3.754667 0.853333 1.28-0.341333 8.448-1.365333 8.448-0.426667 0-0.768-2.133333-0.768-4.693333zM13.056 485.034667c-0.256-0.682667-0.085333-1.706667 0.512-2.304 0.682667-0.682667 0.938667-0.341333 0.938667 1.365333 0 2.56-0.597333 2.986667-1.450667 0.938667z" fill="#0E74FF" p-id="6500"></path><path d="M821.333333 709.034667c-1.365333-0.426667-5.205333-1.194667-8.448-1.621334-3.328-0.512-6.570667-1.450667-7.338666-2.133333s-1.962667-1.28-2.56-1.28c-2.986667 0-19.626667-13.653333-19.626667-16.128 0-0.341333-0.768-1.365333-1.706667-2.218667s-1.706667-2.048-1.706666-2.730666-0.768-2.218667-1.621334-3.498667-1.877333-4.010667-2.133333-6.058667c-0.341333-2.048-1.109333-4.522667-1.792-5.461333-0.938667-1.365333-1.28-4.352-1.28-11.264 0-7.936 0.256-9.813333 1.706667-11.946667 0.938667-1.365333 1.706667-3.925333 1.706666-5.632 0-1.962667 0.597333-3.584 1.706667-4.608 0.938667-0.853333 1.706667-2.133333 1.706667-2.730666 0-0.682667 0.853333-2.474667 1.962666-3.925334 3.584-4.949333 41.557333-42.154667 46.933334-45.994666 2.304-1.706667 2.474667-1.621333 2.645333 1.450666 0.085333 1.109333 0.938667 1.792 2.645333 2.133334 1.450667 0.341333 4.181333 2.133333 6.144 4.096s4.352 3.584 5.376 3.584c0.938667 0 3.157333 1.536 5.034667 3.413333 1.962667 2.048 4.096 3.413333 5.290667 3.413333 1.28 0 3.157333 1.28 5.034666 3.413334 2.133333 2.389333 3.669333 3.413333 5.290667 3.413333 1.450667 0 2.645333 0.682667 3.242667 1.706667 0.597333 1.109333 1.792 1.706667 3.242666 1.706666 1.706667 0 3.328 1.024 5.546667 3.413334 1.962667 2.133333 3.84 3.413333 5.205333 3.413333 1.28 0 3.157333 1.194667 5.12 3.413333 1.621333 1.877333 4.096 3.584 5.376 3.754667 1.194667 0.256 3.84 1.962667 5.802667 3.925333 2.048 2.048 4.266667 3.413333 5.546667 3.413334 1.450667 0.085333 2.986667 1.194667 4.693333 3.328 2.133333 2.730667 2.816 3.157333 4.181333 2.474666 1.024-0.512 1.877333-0.512 2.389334 0 1.109333 1.109333 0.170667 2.730667-1.536 2.730667-0.682667 0-1.194667 0.426667-1.194667 0.938667s-3.072 4.010667-6.826667 7.850666c-40.618667 41.472-50.090667 50.944-50.944 50.944-0.426667 0-1.792 0.682667-2.901333 1.621334-1.109333 0.853333-2.986667 1.877333-4.181333 2.218666s-2.730667 1.109333-3.413334 1.706667-3.925333 1.536-7.253333 2.048c-3.242667 0.512-7.338667 1.28-8.96 1.792-3.498667 1.024-4.608 1.024-8.106667-0.085333zM917.333333 635.392c0-0.853333 0.768-1.365333 1.792-1.365333 2.048 0 1.792 1.962667-0.341333 2.389333-0.853333 0.170667-1.450667-0.256-1.450667-1.024zM500.053333 631.381333c-3.498667-0.853333-8.106667-1.621333-10.24-1.621333-2.218667 0-5.376-0.768-7.253333-1.706667s-4.352-1.706667-5.546667-1.706666-3.242667-0.768-4.693333-1.706667c-1.365333-0.938667-3.328-1.706667-4.352-1.706667s-2.645333-0.768-3.754667-1.706666-2.56-1.706667-3.242666-1.706667-3.413333-1.450667-6.058667-3.157333c-2.645333-1.792-5.461333-3.584-6.229333-4.096-7.594667-4.437333-20.906667-17.237333-28.416-27.306667-0.938667-1.194667-2.389333-2.986667-3.157334-3.925333-0.853333-0.853333-1.536-2.218667-1.536-2.901334s-0.768-2.048-1.706666-2.986666-1.877333-2.645333-2.218667-3.754667c-0.256-1.194667-1.024-2.56-1.706667-3.157333-0.682667-0.512-1.194667-1.877333-1.194666-2.901334s-0.768-2.901333-1.706667-4.096-1.706667-3.242667-1.706667-4.693333c0-1.365333-0.768-3.328-1.706666-4.437333-1.28-1.450667-1.706667-3.157333-1.706667-6.485334 0-4.608 1.450667-7.082667 2.304-3.84 0.341333 1.28 1.109333 1.792 2.901333 1.792 1.536 0 2.730667 0.597333 3.328 1.706667 0.768 1.450667 1.792 1.706667 6.741334 1.706667 4.693333 0 6.058667 0.341333 7.338666 1.706666 1.194667 1.365333 2.645333 1.706667 6.656 1.706667 4.096 0 5.546667 0.341333 7.168 1.877333 1.621333 1.450667 2.816 1.792 6.997334 1.621334 4.266667-0.170667 5.290667 0.085333 6.912 1.792 1.536 1.621333 2.474667 1.877333 6.741333 1.706666 4.352-0.256 5.290667 0 7.68 2.048 2.389333 1.962667 3.242667 2.218667 6.997333 1.877334 3.669333-0.341333 4.693333-0.170667 6.741334 1.536 1.962667 1.706667 3.328 2.048 7.850666 2.048 4.437333 0 5.546667 0.256 6.485334 1.706666 0.853333 1.450667 1.962667 1.706667 6.912 1.706667 4.693333 0 6.058667 0.341333 7.338666 1.706667 1.194667 1.365333 2.645333 1.706667 6.826667 1.706666s5.632 0.341333 6.826667 1.706667c1.28 1.365333 2.645333 1.706667 7.338666 1.706667 4.949333 0 5.973333 0.256 6.741334 1.706666s1.792 1.706667 6.826666 1.706667 6.144 0.256 6.997334 1.706667c0.938667 1.450667 2.048 1.706667 6.570666 1.706666s5.888 0.341333 7.509334 1.877334c1.621333 1.450667 2.816 1.792 6.997333 1.621333 4.266667-0.170667 5.290667 0.085333 6.912 1.792 1.536 1.621333 2.474667 1.877333 6.741333 1.706667 4.352-0.256 5.290667 0 7.338667 1.877333 2.474667 2.304 4.266667 2.816 5.12 1.365333 0.256-0.426667 1.28-0.853333 2.218667-0.853333 2.133333 0 2.133333 2.56-0.085334 3.157333-0.938667 0.256-1.706667 0.853333-1.706666 1.28 0 1.28-12.117333 12.629333-13.397334 12.629334-0.682667 0-1.365333 0.512-1.621333 1.194666s-1.536 1.621333-2.901333 2.218667-2.645333 1.536-2.901334 2.218667-0.938667 1.194667-1.621333 1.194666c-0.597333 0-2.389333 0.938667-4.010667 2.133334s-3.413333 2.133333-4.096 2.133333-2.133333 0.768-3.328 1.706667-2.986667 1.706667-3.925333 1.706666-2.389333 0.597333-3.157333 1.28c-0.853333 0.768-2.986667 1.536-4.778667 1.792-1.877333 0.256-4.693333 1.194667-6.314667 2.048-1.621333 0.768-5.888 1.706667-9.386666 1.962667-3.498667 0.341333-7.936 1.109333-9.813334 1.792-4.949333 1.877333-18.858667 1.621333-26.88-0.426667zM921.6 631.893333c0-0.682667 0.597333-1.28 1.365333-1.28 1.194667 0 1.194667 0.256 0.341334 1.28-0.597333 0.682667-1.194667 1.28-1.365334 1.28s-0.341333-0.597333-0.341333-1.28zM601.770667 589.482667c0.426667-1.28 2.389333-1.536 2.474666-0.256 0 0.512-0.597333 1.024-1.450666 1.109333-0.853333 0.256-1.28-0.085333-1.024-0.853333zM398.506667 534.442667c0-2.304 0.426667-4.693333 0.853333-5.376 0.597333-0.938667 0.853333-0.682667 0.853333 1.365333 0 1.450667 0.256 3.925333 0.512 5.376 0.426667 2.048 0.256 2.645333-0.853333 2.645333-1.024 0-1.365333-0.853333-1.365333-4.010666z" fill="#F62D3D" p-id="6501"></path></svg>