<svg t="1722235491259" class="icon" viewBox="0 0 1024 1024" version="1.1" xmlns="http://www.w3.org/2000/svg" p-id="4136" width="200" height="200"><path d="M777.348523 497.421829a125.592613 125.592613 0 0 0 131.607748-100.721521 82.334831 82.334831 0 0 0-69.152726-37.583931 82.420152 82.420152 0 0 0-62.455022 138.262791z m-293.760439-347.171427l171.538008-99.271064-54.605484-30.800905-236.467341 136.940315 18.813296 10.579812 35.834849 20.050451 64.886672-37.54127zM677.096267 41.807324a9.257336 9.257336 0 0 1 6.057796 6.015135l79.476576 242.951742a9.299996 9.299996 0 0 1-4.010091 11.006418 162.024709 162.024709 0 0 0-74.144008 182.160481 162.11003 162.11003 0 0 0 172.775163 118.468304c4.351374-0.341284 8.532107 2.346329 9.854584 6.484401l81.993547 249.649446a9.55596 9.55596 0 0 1-4.010091 11.006418l-251.441188 152.639391a9.55596 9.55596 0 0 1-4.095412 1.237156 9.342657 9.342657 0 0 1-6.569722-1.407798l-88.477948-57.5064a9.470639 9.470639 0 0 1-3.498164-4.138072L418.402788 547.761259l-263.002194 156.009574a9.385318 9.385318 0 0 1-1.706421 0.895871 8.916052 8.916052 0 0 1-8.361465-0.597247l-59.468784-34.981638a9.214675 9.214675 0 0 1-3.668806-12.200913L336.665204 152.980676a9.214675 9.214675 0 0 1 4.351375-4.223393L595.614647 1.322477a9.342657 9.342657 0 0 1 9.342657-0.170643L677.096267 41.807324zM410.894534 204.983867l-49.699522-28.027971-12.158253-6.825686L102.885477 657.398832l44.665579 26.32155 212.108176-288.427872a9.214675 9.214675 0 0 1 8.702749-3.839448c3.370182 0.341284 6.228438 2.559632 7.508254 5.673851L607.132991 950.476702l61.857775 40.058242-247.55908-753.81164-10.494492-31.739437z m428.909011 337.78611a101.233448 101.233448 0 1 1 71.499055-172.860485 101.105466 101.105466 0 0 1 29.606411 71.499056 101.105466 101.105466 0 0 1-101.105466 101.361429z" p-id="4137"></path></svg>